<?xml version="1.0" standalone="no"?><!DOCTYPE svg PUBLIC "-//W3C//DTD SVG 1.1//EN" "http://www.w3.org/Graphics/SVG/1.1/DTD/svg11.dtd"><svg t="1669622820392" class="icon" viewBox="0 0 1039 1024" version="1.1" xmlns="http://www.w3.org/2000/svg" p-id="7157" xmlns:xlink="http://www.w3.org/1999/xlink" width="1039" height="1024"><path d="M763.661017 966.146893h-9.642185l-233.340866-111.849341-233.340866 111.849341h-9.642185c-79.065913 0-142.704331-69.423729-142.704331-154.274953v-539.962335c0-84.851224 63.638418-154.274953 142.704331-154.274953h485.966102c79.065913 0 142.704331 69.423729 142.704331 154.274953v539.962335c0 84.851224-63.638418 154.274953-142.704331 154.274953z m-242.983051-196.700565l250.696799 119.563088c32.783427-3.856874 57.853107-36.640301 57.853107-77.137476v-539.962335c0-42.425612-28.926554-77.137476-65.566855-77.137477h-485.966102c-36.640301 0-65.566855 34.711864-65.566855 77.137477v539.962335c0 38.568738 25.06968 71.352166 57.853108 77.137476l250.696798-119.563088z" fill="#388CEB" p-id="7158"></path><path d="M711.59322 752.090395l-192.843691-100.278719-196.700565 96.421846 59.781544-192.843691-138.847457-154.274953 194.772128 3.856873 84.851224-156.203389 80.99435 158.131826 194.772128 1.928437-142.704331 150.418079 55.92467 192.843691z m-192.843691-163.917137l100.27872 52.067797-26.998117-98.350283 73.280602-77.137476-98.350282-1.928437-46.282486-90.636535-50.13936 90.636535-98.350282-1.928437 71.352166 79.065913-30.854991 96.421846 106.06403-48.210923z" fill="#E78E00" p-id="7159"></path></svg>